<svg width="335" height="220" viewBox="0 0 335 220" fill="none" xmlns="http://www.w3.org/2000/svg">
    <rect x="335" width="220" height="335" rx="45.7353" transform="rotate(90 335 0)"
        fill="#45197D" />
    <mask id="mask0_40_351" style="mask-type:alpha" maskUnits="userSpaceOnUse" x="0" y="0"
        width="335" height="220">
        <rect x="335" width="220" height="335" rx="45.7353" transform="rotate(90 335 0)"
            fill="#5B259F" />
    </mask>
    <g mask="url(#mask0_40_351)">
        <circle cx="49.4412" cy="176.538" r="75.9206" transform="rotate(90 49.4412 176.538)"
            stroke="#D71CDB" stroke-width="3.65882" />
        <circle cx="296" cy="37" r="80" transform="rotate(90 296 37)" fill="#6E34B8" />
        <circle cx="317.046" cy="202.046" r="35.2162" transform="rotate(90 317.046 202.046)"
            stroke="#9038FF" stroke-width="3.65882" />
    </g>
    <path
        d="M80.3679 156.826C78.9806 156.321 77.5142 156.067 76.0377 156.077C71.2628 156.077 67.8905 158.483 67.8666 161.936C67.8368 164.472 70.263 165.902 72.0984 166.749C73.9815 167.621 74.6112 168.17 74.6052 168.949C74.5933 170.133 73.1011 170.671 71.7134 170.671C69.8064 170.671 68.7649 170.405 67.1623 169.739L66.5684 169.462L65.891 173.437C67.0519 173.921 69.1439 174.335 71.3045 174.371C76.3809 174.371 79.6994 171.981 79.7382 168.307C79.78 166.281 78.4669 164.75 75.7034 163.484C74.0232 162.664 72.9817 162.115 72.9817 161.282C72.9817 160.545 73.874 159.757 75.7392 159.757C76.9806 159.727 78.2142 159.96 79.3592 160.44L79.8068 160.64L80.4843 156.8L80.3679 156.826ZM92.7588 156.4H89.0284C87.8675 156.4 86.9931 156.719 86.4857 157.871L79.3114 174.123H84.3878L85.4024 171.458L91.5979 171.464C91.7441 172.088 92.1917 174.123 92.1917 174.123H96.6682L92.7588 156.4ZM60.9997 156.25H65.8373L62.8112 173.983H57.9796L60.9997 156.244V156.25ZM48.7193 166.024L49.2206 168.486L53.9478 156.4H59.0718L51.4589 174.1H46.3467L42.1687 159.112C42.101 158.865 41.9421 158.653 41.724 158.518C40.2182 157.741 38.6226 157.15 36.973 156.761L37.0387 156.388H44.8247C45.8812 156.429 46.7317 156.761 47.0152 157.889L48.7163 166.033V166.024H48.7193ZM86.7901 167.833L88.718 162.873C88.6941 162.926 89.1149 161.849 89.3596 161.183L89.6909 162.714L90.81 167.83H86.7872V167.833H86.7901Z"
        fill="white" />
    <rect x="274.588" y="46" width="32.0147" height="36.5882" rx="5.48824"
        transform="rotate(90 274.588 46)" fill="#FFD686" />
    <path d="M274.588 64.66H258.855V56.6106L238 56.6106" stroke="#45197D" stroke-width="1.82941"
        stroke-linejoin="round" />
</svg>
