<svg width="60" height="60" viewBox="0 0 60 60" fill="none" xmlns="http://www.w3.org/2000/svg">
    <path
        d="M24.18 40.75C24.08 40.75 23.97 40.74 23.88 40.73L21.71 40.43C20.67 40.29 19.73 39.36 19.57 38.3L19.27 36.11C19.17 35.41 19.47 34.5 19.97 33.99L24.36 29.6C23.65 26.76 24.47 23.76 26.56 21.69C29.8 18.46 35.07 18.45 38.32 21.69C39.89 23.26 40.75 25.35 40.75 27.57C40.75 29.79 39.89 31.88 38.32 33.45C36.22 35.53 33.23 36.35 30.41 35.63L26.01 40.02C25.59 40.46 24.84 40.75 24.18 40.75ZM32.43 20.76C30.68 20.76 28.94 21.42 27.61 22.75C25.81 24.54 25.16 27.16 25.91 29.6C25.99 29.87 25.92 30.15 25.72 30.35L21.02 35.05C20.85 35.22 20.71 35.66 20.74 35.89L21.04 38.08C21.1 38.46 21.51 38.89 21.89 38.94L24.07 39.24C24.31 39.28 24.75 39.14 24.92 38.97L29.64 34.26C29.84 34.06 30.13 34 30.39 34.08C32.8 34.84 35.43 34.19 37.23 32.39C38.51 31.11 39.22 29.39 39.22 27.57C39.22 25.74 38.51 24.03 37.23 22.75C35.93 21.43 34.18 20.76 32.43 20.76Z"
        fill="#0000FF" />
    <path
        d="M27.19 38.54C27 38.54 26.81 38.47 26.66 38.32L24.36 36.02C24.07 35.73 24.07 35.25 24.36 34.96C24.65 34.67 25.13 34.67 25.42 34.96L27.72 37.26C28.01 37.55 28.01 38.03 27.72 38.32C27.57 38.47 27.38 38.54 27.19 38.54Z"
        fill="#0000FF" />
    <path
        d="M32.5 29.75C31.26 29.75 30.25 28.74 30.25 27.5C30.25 26.26 31.26 25.25 32.5 25.25C33.74 25.25 34.75 26.26 34.75 27.5C34.75 28.74 33.74 29.75 32.5 29.75ZM32.5 26.75C32.09 26.75 31.75 27.09 31.75 27.5C31.75 27.91 32.09 28.25 32.5 28.25C32.91 28.25 33.25 27.91 33.25 27.5C33.25 27.09 32.91 26.75 32.5 26.75Z"
        fill="#0000FF" />
    <rect x="0.25" y="0.25" width="59.5" height="59.5" rx="29.75" stroke="#E0E0E0"
        stroke-width="0.5" />
</svg>
