<svg width="20" height="18" viewBox="0 0 20 18" fill="none" xmlns="http://www.w3.org/2000/svg">
    <path
        d="M18.7399 5.27246C18.5306 4.91498 18.0712 4.79482 17.7137 5.00407C17.3563 5.21332 17.2361 5.67274 17.4453 6.03021L18.7399 5.27246ZM18.0926 12.3487L17.4453 11.9698L18.0926 12.3487ZM7.16464 15.7776C6.77298 15.6427 6.34619 15.851 6.21137 16.2426C6.07656 16.6343 6.28478 17.0611 6.67645 17.1959L7.16464 15.7776ZM1.9074 12.3487L2.55466 11.9698L1.9074 12.3487ZM1.9074 5.65133L2.55466 6.03021L1.9074 5.65133ZM11.9162 6.96831C12.216 7.25418 12.6907 7.24293 12.9766 6.94318C13.2624 6.64343 13.2512 6.16869 12.9514 5.88282L11.9162 6.96831ZM6.7432 11.9157C7.01234 12.2305 7.48577 12.2676 7.80062 11.9985C8.11548 11.7293 8.15254 11.2559 7.8834 10.941L6.7432 11.9157ZM14.3067 9.0607C14.3067 8.64649 13.9709 8.3107 13.5567 8.3107C13.1425 8.3107 12.8067 8.64649 12.8067 9.0607H14.3067ZM9.99944 11.9233C9.58523 11.9233 9.24944 12.2591 9.24944 12.6733C9.24944 13.0875 9.58523 13.4233 9.99944 13.4233V11.9233ZM18.4095 1.52614C18.7001 1.23095 18.6963 0.756089 18.4011 0.465511C18.1059 0.174933 17.6311 0.178672 17.3405 0.473862L18.4095 1.52614ZM2.15301 15.9024C1.86243 16.1976 1.86617 16.6725 2.16136 16.9631C2.45655 17.2536 2.93141 17.2499 3.22199 16.9547L2.15301 15.9024ZM17.4453 6.03021C18.5182 7.8631 18.5182 10.1369 17.4453 11.9698L18.7399 12.7275C20.0867 10.4266 20.0867 7.57337 18.7399 5.27246L17.4453 6.03021ZM17.4453 11.9698C15.2217 15.7686 10.8404 17.0427 7.16464 15.7776L6.67645 17.1959C10.9744 18.6752 16.1274 17.1907 18.7399 12.7275L17.4453 11.9698ZM2.55466 11.9698C1.48178 10.1369 1.48178 7.8631 2.55466 6.03021L1.26013 5.27246C-0.086711 7.57337 -0.0867115 10.4266 1.26013 12.7275L2.55466 11.9698ZM4.45255 14.2388C3.72734 13.6258 3.08181 12.8704 2.55466 11.9698L1.26013 12.7275C1.87315 13.7748 2.62893 14.6614 3.48415 15.3843L4.45255 14.2388ZM2.55466 6.03021C5.26824 1.3944 11.2017 0.519963 15.1232 3.42527L16.0162 2.22C11.4173 -1.18707 4.44922 -0.175702 1.26013 5.27246L2.55466 6.03021ZM7.19331 9.0607C7.19331 7.46701 8.46065 6.19699 9.99944 6.19699V4.69699C7.60973 4.69699 5.69331 6.66125 5.69331 9.0607H7.19331ZM9.99944 6.19699C10.7392 6.19699 11.4126 6.48802 11.9162 6.96831L12.9514 5.88282C12.1822 5.14925 11.1429 4.69699 9.99944 4.69699V6.19699ZM7.8834 10.941C7.45402 10.4387 7.19331 9.78247 7.19331 9.0607H5.69331C5.69331 10.1505 6.08864 11.15 6.7432 11.9157L7.8834 10.941ZM12.8067 9.0607C12.8067 10.6528 11.5387 11.9233 9.99944 11.9233V13.4233C12.3887 13.4233 14.3067 11.4595 14.3067 9.0607H12.8067ZM17.3405 0.473862L2.15301 15.9024L3.22199 16.9547L18.4095 1.52614L17.3405 0.473862Z"
        fill="#828282" />
</svg>
