<svg id="svg" version="1.1" xmlns="http://www.w3.org/2000/svg" width="400" height="404.9382716049383"
    viewBox="0, 0, 400,404.9382716049383">
    <g id="svgg">
        <path id="path0"
            d="M60.400 119.243 C 58.750 119.429,56.950 119.787,56.400 120.038 C 54.776 120.780,53.167 121.193,50.282 121.610 C 48.566 121.857,47.254 122.291,46.724 122.785 C 46.261 123.216,45.058 123.692,44.050 123.843 C 43.043 123.994,41.044 124.721,39.609 125.457 C 38.174 126.194,36.677 126.797,36.283 126.798 C 35.889 126.799,35.177 127.163,34.700 127.607 C 34.224 128.051,33.178 128.590,32.376 128.806 C 31.574 129.022,30.439 129.643,29.853 130.186 C 29.268 130.728,28.090 131.360,27.236 131.590 C 26.381 131.820,25.591 132.247,25.479 132.539 C 25.367 132.831,24.298 133.548,23.103 134.132 C 19.914 135.692,20.000 135.198,20.000 151.970 C 20.000 168.118,20.071 168.619,22.085 166.606 C 22.634 166.057,23.729 165.338,24.519 165.008 C 25.309 164.678,26.408 163.956,26.960 163.404 C 27.512 162.852,28.217 162.400,28.527 162.400 C 28.837 162.400,29.769 161.860,30.600 161.200 C 31.431 160.540,32.431 160.000,32.824 160.000 C 33.217 160.000,34.047 159.576,34.669 159.058 C 35.291 158.540,36.520 157.886,37.400 157.604 C 38.280 157.322,39.720 156.688,40.600 156.194 C 41.480 155.700,43.060 155.186,44.112 155.054 C 45.163 154.921,46.963 154.404,48.112 153.906 C 51.570 152.405,64.477 152.534,67.579 154.100 C 68.777 154.705,70.161 155.200,70.655 155.200 C 71.149 155.200,71.661 155.376,71.794 155.590 C 71.927 155.805,72.988 156.613,74.152 157.386 C 75.411 158.222,76.579 159.396,77.035 160.285 C 77.456 161.107,78.124 162.054,78.520 162.390 C 78.916 162.725,79.415 163.777,79.628 164.727 C 79.842 165.677,80.374 166.938,80.811 167.529 C 81.347 168.254,81.746 169.772,82.039 172.202 C 82.278 174.181,82.727 176.783,83.037 177.984 C 83.507 179.807,83.600 188.837,83.600 232.670 C 83.600 284.168,83.615 285.180,84.374 285.586 C 85.639 286.263,122.180 286.147,122.747 285.464 C 123.068 285.077,123.221 268.851,123.296 227.220 L 123.400 169.512 124.785 168.356 C 125.547 167.720,126.376 167.200,126.629 167.200 C 126.881 167.200,127.418 166.761,127.821 166.224 C 128.224 165.687,128.961 165.146,129.460 165.021 C 129.958 164.896,130.855 164.340,131.452 163.787 C 132.049 163.234,133.002 162.668,133.569 162.530 C 134.136 162.392,135.191 161.767,135.914 161.140 C 136.637 160.513,137.568 160.000,137.983 160.000 C 138.399 160.000,139.250 159.570,139.874 159.045 C 140.499 158.519,141.817 157.850,142.805 157.557 C 143.792 157.264,145.174 156.639,145.876 156.167 C 146.610 155.673,148.141 155.197,149.486 155.045 C 150.824 154.893,152.414 154.401,153.210 153.890 C 154.531 153.044,155.006 153.000,162.800 153.000 L 171.000 153.000 172.960 154.100 C 174.037 154.705,175.351 155.200,175.878 155.200 C 176.405 155.200,177.286 155.650,177.836 156.200 C 178.386 156.750,178.963 157.201,179.118 157.202 C 179.676 157.206,183.100 161.054,183.401 162.016 C 183.571 162.557,184.124 163.496,184.631 164.102 C 185.144 164.717,185.674 166.043,185.828 167.102 C 185.980 168.146,186.576 169.810,187.152 170.800 L 188.200 172.600 188.400 229.200 L 188.600 285.800 207.400 285.915 C 217.740 285.978,226.785 285.925,227.500 285.797 L 228.800 285.564 228.840 228.082 C 228.883 166.136,228.788 169.024,230.817 167.720 C 231.578 167.231,232.592 166.471,233.070 166.031 C 233.549 165.590,234.408 165.113,234.980 164.969 C 235.551 164.826,236.245 164.385,236.523 163.989 C 236.800 163.594,237.740 162.943,238.613 162.544 C 239.486 162.144,240.709 161.409,241.331 160.909 C 241.953 160.409,242.746 160.000,243.093 160.000 C 243.440 160.000,244.291 159.568,244.984 159.040 C 245.676 158.511,247.043 157.842,248.021 157.552 C 249.000 157.262,250.371 156.641,251.068 156.172 C 251.766 155.703,253.239 155.212,254.343 155.081 C 255.447 154.951,257.307 154.429,258.475 153.922 C 261.000 152.826,275.663 152.490,276.879 153.500 C 277.211 153.775,278.678 154.434,280.141 154.964 C 281.603 155.495,283.354 156.395,284.031 156.964 C 284.707 157.534,285.423 158.000,285.620 158.000 C 285.818 158.000,286.242 158.495,286.564 159.100 C 286.885 159.705,287.584 160.659,288.117 161.221 C 288.650 161.782,289.314 162.952,289.593 163.821 C 289.873 164.689,290.326 165.670,290.600 166.000 C 291.378 166.936,291.938 169.131,292.232 172.400 C 292.381 174.050,292.633 175.580,292.793 175.800 C 292.954 176.020,293.241 176.650,293.432 177.200 C 293.623 177.750,293.874 202.410,293.990 232.000 L 294.200 285.800 313.154 285.904 C 326.817 285.979,332.261 285.881,332.654 285.555 C 333.896 284.525,333.302 158.005,332.052 157.232 C 331.643 156.979,330.401 152.557,330.398 151.342 C 330.398 150.934,329.858 149.520,329.200 148.200 C 328.542 146.880,328.002 145.510,328.002 145.155 C 328.001 144.800,327.460 143.831,326.800 143.000 C 326.140 142.169,325.600 141.262,325.600 140.983 C 325.600 140.704,324.970 139.722,324.200 138.800 C 323.430 137.878,322.800 136.989,322.800 136.824 C 322.800 135.632,313.615 127.473,310.800 126.164 C 309.810 125.704,308.753 125.029,308.451 124.664 C 308.149 124.299,307.486 124.000,306.977 124.000 C 305.765 124.000,304.278 123.421,303.505 122.648 C 303.165 122.308,301.666 121.834,300.174 121.596 C 298.682 121.357,296.637 120.820,295.631 120.401 C 290.406 118.229,270.767 118.239,265.534 120.417 C 264.507 120.844,262.384 121.375,260.816 121.598 C 258.974 121.859,257.667 122.279,257.124 122.785 C 256.661 123.216,255.454 123.689,254.441 123.835 C 252.558 124.108,251.179 124.647,250.770 125.270 C 250.644 125.462,249.474 125.917,248.170 126.280 C 246.867 126.644,245.291 127.359,244.669 127.870 C 244.047 128.382,243.231 128.800,242.856 128.800 C 242.480 128.800,241.248 129.385,240.118 130.100 C 237.155 131.974,235.632 132.893,233.985 133.800 C 233.186 134.240,232.008 134.981,231.366 135.448 C 230.725 135.914,229.789 136.423,229.287 136.579 C 228.785 136.734,227.953 137.253,227.437 137.731 C 226.132 138.942,223.201 140.684,221.935 141.002 C 220.838 141.277,218.423 138.725,216.800 135.575 C 216.470 134.935,215.883 134.306,215.496 134.177 C 215.108 134.048,214.525 133.429,214.200 132.800 C 213.875 132.171,213.256 131.545,212.825 131.408 C 212.394 131.271,211.936 130.828,211.807 130.423 C 211.679 130.017,211.044 129.467,210.398 129.199 C 209.751 128.931,208.748 128.273,208.169 127.736 C 207.589 127.199,206.414 126.479,205.558 126.136 C 204.701 125.794,204.000 125.375,204.000 125.205 C 204.000 124.851,202.348 124.149,200.600 123.761 C 199.940 123.615,199.017 123.148,198.549 122.724 C 198.057 122.278,196.710 121.811,195.349 121.615 C 194.057 121.430,192.190 120.971,191.200 120.597 C 184.960 118.238,166.174 118.237,160.000 120.596 C 159.010 120.974,156.973 121.441,155.472 121.634 C 153.824 121.846,152.283 122.314,151.578 122.816 C 150.936 123.273,149.507 123.789,148.403 123.964 C 147.298 124.139,146.065 124.579,145.664 124.942 C 145.262 125.306,144.049 125.901,142.967 126.264 C 141.885 126.628,140.572 127.257,140.048 127.661 C 139.524 128.066,138.407 128.583,137.566 128.809 C 136.724 129.036,135.803 129.444,135.518 129.716 C 134.616 130.577,132.849 131.600,132.263 131.600 C 131.952 131.600,131.451 131.899,131.149 132.265 C 130.847 132.630,129.655 133.348,128.500 133.860 C 127.345 134.371,126.400 134.950,126.400 135.146 C 126.400 135.343,125.854 135.729,125.187 136.005 C 124.520 136.282,123.326 137.023,122.532 137.654 C 121.739 138.284,120.898 138.800,120.664 138.800 C 120.430 138.800,119.638 139.381,118.905 140.092 L 117.572 141.384 115.832 140.461 C 114.758 139.891,113.807 138.990,113.346 138.105 C 112.508 136.496,105.194 128.800,104.504 128.800 C 104.259 128.800,103.704 128.350,103.271 127.800 C 102.839 127.250,102.292 126.800,102.056 126.800 C 101.416 126.800,98.800 125.494,98.800 125.174 C 98.800 124.829,97.035 124.136,95.259 123.784 C 94.522 123.638,93.581 123.181,93.168 122.768 C 92.712 122.312,91.359 121.850,89.709 121.587 C 88.219 121.350,86.460 120.878,85.800 120.540 C 82.861 119.031,68.677 118.307,60.400 119.243 "
            stroke="none" fill="#e31d25" fill-rule="evenodd"></path>
        <path id="path1"
            d="M0.000 202.400 L 0.000 404.800 200.000 404.800 L 400.000 404.800 400.000 202.400 L 400.000 0.000 200.000 0.000 L 0.000 0.000 0.000 202.400 M78.165 116.774 C 79.419 117.265,81.703 117.668,84.115 117.824 C 87.451 118.039,88.199 118.219,89.173 119.038 C 89.801 119.567,90.830 120.003,91.458 120.006 C 93.152 120.015,96.043 120.971,96.575 121.698 C 96.830 122.047,97.727 122.463,98.567 122.620 C 99.406 122.778,100.681 123.423,101.400 124.053 C 102.118 124.684,102.995 125.200,103.350 125.200 C 103.704 125.200,104.475 125.740,105.063 126.400 C 105.651 127.060,106.385 127.600,106.693 127.600 C 107.528 127.600,113.508 133.938,114.308 135.670 C 115.436 138.115,118.661 138.481,120.400 136.362 C 120.730 135.960,121.634 135.369,122.408 135.049 C 123.183 134.728,124.146 134.101,124.550 133.656 C 124.953 133.210,125.804 132.731,126.441 132.591 C 127.078 132.451,127.839 131.993,128.133 131.574 C 128.427 131.154,129.447 130.536,130.400 130.200 C 131.353 129.864,132.383 129.232,132.688 128.796 C 133.011 128.334,133.927 127.893,134.877 127.741 C 135.834 127.588,136.839 127.102,137.306 126.564 C 137.744 126.060,138.980 125.423,140.051 125.148 C 141.123 124.873,142.000 124.507,142.000 124.335 C 142.000 123.857,144.011 122.941,145.755 122.625 C 146.610 122.470,147.796 121.984,148.390 121.544 C 149.619 120.636,151.897 120.024,154.100 120.010 C 154.925 120.004,155.600 119.825,155.600 119.610 C 155.600 118.750,158.025 118.063,162.005 117.795 C 164.879 117.602,166.767 117.256,168.000 116.696 C 170.516 115.555,180.649 115.466,182.752 116.567 C 183.571 116.995,185.935 117.465,188.752 117.757 C 193.219 118.222,195.200 118.792,195.200 119.614 C 195.200 119.826,195.893 120.000,196.740 120.000 C 198.725 120.000,200.707 120.685,202.131 121.864 C 202.753 122.379,203.760 122.800,204.369 122.800 C 204.998 122.800,205.805 123.171,206.238 123.658 C 206.657 124.130,207.754 124.854,208.676 125.266 C 209.597 125.678,210.464 126.372,210.603 126.808 C 210.741 127.244,211.196 127.600,211.615 127.600 C 212.034 127.600,212.774 128.138,213.260 128.796 C 213.747 129.454,214.454 130.090,214.832 130.210 C 215.211 130.330,215.621 130.827,215.744 131.314 C 215.866 131.801,216.364 132.380,216.851 132.600 C 217.337 132.820,217.929 133.353,218.167 133.784 C 218.405 134.215,218.985 134.887,219.455 135.278 C 219.925 135.668,220.428 136.457,220.572 137.030 C 220.754 137.755,221.021 138.001,221.449 137.836 C 221.788 137.706,222.476 137.600,222.978 137.600 C 223.479 137.600,224.585 137.047,225.435 136.372 C 226.285 135.697,227.444 135.051,228.010 134.938 C 228.576 134.825,229.211 134.342,229.420 133.866 C 229.674 133.288,230.398 132.856,231.600 132.566 C 232.751 132.289,233.448 131.887,233.533 131.450 C 233.606 131.071,234.172 130.666,234.805 130.539 C 235.432 130.414,236.272 130.010,236.672 129.642 C 238.091 128.336,239.390 127.600,240.273 127.600 C 240.766 127.600,241.515 127.229,241.937 126.775 C 242.360 126.321,243.500 125.711,244.470 125.419 C 245.441 125.127,246.888 124.445,247.687 123.903 C 248.486 123.361,249.998 122.799,251.047 122.656 C 252.096 122.512,253.325 122.053,253.777 121.635 C 254.728 120.759,257.203 120.005,259.142 120.002 C 259.974 120.001,260.919 119.634,261.627 119.038 C 262.599 118.221,263.356 118.038,266.685 117.816 C 268.838 117.673,271.410 117.282,272.400 116.947 C 277.031 115.380,284.664 115.316,288.600 116.811 C 289.766 117.254,292.223 117.675,294.493 117.822 C 297.630 118.025,298.598 118.241,299.481 118.937 C 300.133 119.451,301.705 119.992,303.368 120.275 C 305.309 120.606,306.348 120.997,306.780 121.560 C 307.144 122.034,308.107 122.480,309.113 122.637 C 310.148 122.800,311.097 123.247,311.513 123.768 C 311.891 124.243,312.778 124.868,313.485 125.158 C 314.192 125.447,315.315 126.206,315.981 126.842 C 316.648 127.479,317.435 128.000,317.732 128.000 C 318.029 128.000,318.478 128.453,318.730 129.006 C 318.982 129.559,319.621 130.209,320.150 130.450 C 320.679 130.691,321.308 131.318,321.547 131.844 C 321.787 132.370,322.164 132.800,322.386 132.800 C 322.607 132.800,323.286 133.565,323.894 134.500 C 324.502 135.435,325.405 136.613,325.900 137.118 C 326.395 137.623,326.800 138.292,326.800 138.604 C 326.800 138.917,327.317 139.701,327.948 140.347 C 328.598 141.012,329.217 142.189,329.376 143.061 C 329.529 143.907,330.025 144.888,330.478 145.240 C 331.005 145.649,331.416 146.612,331.623 147.919 C 331.800 149.040,332.308 150.463,332.752 151.079 C 333.626 152.294,334.400 156.842,334.400 160.767 C 334.400 162.117,334.676 163.630,335.063 164.406 C 336.293 166.872,336.414 173.248,336.307 229.741 L 336.200 286.081 334.600 287.435 L 333.000 288.788 313.680 288.794 C 297.675 288.799,294.170 288.702,293.251 288.226 C 290.836 286.977,291.018 291.394,290.800 228.839 L 290.600 171.400 289.527 169.884 C 288.846 168.922,288.354 167.573,288.182 166.196 C 287.982 164.590,287.720 163.965,287.176 163.792 C 286.772 163.664,286.318 163.163,286.167 162.680 C 285.838 161.622,282.536 158.400,281.781 158.400 C 281.486 158.400,280.977 158.016,280.648 157.548 C 279.908 156.491,269.312 155.060,266.330 155.613 C 265.378 155.790,262.459 156.065,259.842 156.225 C 256.005 156.460,254.941 156.659,254.344 157.256 C 253.938 157.662,252.479 158.301,251.102 158.674 C 249.726 159.048,248.189 159.750,247.688 160.234 C 247.186 160.719,246.176 161.228,245.443 161.366 C 244.710 161.503,243.802 161.956,243.426 162.371 C 243.050 162.787,242.170 163.352,241.471 163.628 C 240.772 163.904,239.838 164.452,239.395 164.846 C 238.952 165.240,237.909 165.846,237.077 166.194 C 236.246 166.541,235.466 167.083,235.346 167.397 C 235.225 167.712,234.763 168.085,234.319 168.226 C 233.875 168.367,232.811 169.114,231.956 169.888 L 230.400 171.293 230.400 229.065 L 230.400 286.836 229.418 287.818 L 228.436 288.800 208.480 288.800 C 188.701 288.800,188.517 288.793,187.762 287.958 C 187.023 287.141,186.994 285.503,186.800 232.858 C 186.616 182.922,186.546 178.473,185.919 177.000 C 185.168 175.235,184.400 171.373,184.400 169.357 C 184.400 168.583,184.021 167.606,183.458 166.931 C 182.940 166.309,182.288 165.080,182.009 164.200 C 181.730 163.320,180.983 162.115,180.351 161.523 C 179.718 160.930,179.200 160.201,179.200 159.903 C 179.200 159.605,178.570 159.133,177.800 158.854 C 177.030 158.576,175.905 157.938,175.300 157.436 C 172.529 155.138,151.181 155.219,148.863 157.537 C 148.435 157.965,147.301 158.439,146.342 158.590 C 145.384 158.742,143.851 159.391,142.935 160.033 C 142.019 160.675,140.885 161.200,140.416 161.200 C 139.946 161.200,139.165 161.624,138.681 162.142 C 138.196 162.661,137.080 163.336,136.200 163.642 C 135.320 163.949,134.272 164.605,133.871 165.100 C 133.470 165.595,132.911 166.000,132.628 166.000 C 132.346 166.000,131.290 166.630,130.282 167.400 C 129.273 168.170,128.158 168.800,127.803 168.800 C 127.446 168.800,126.972 169.336,126.740 170.000 C 126.510 170.660,126.159 171.200,125.961 171.200 C 125.748 171.200,125.600 194.593,125.600 228.214 C 125.600 281.828,125.558 285.293,124.900 286.314 C 123.219 288.922,124.535 288.772,103.262 288.787 C 82.616 288.801,82.294 288.772,81.313 286.821 C 81.141 286.480,80.909 260.730,80.797 229.600 L 80.594 173.000 79.497 171.032 C 78.894 169.950,78.400 168.537,78.400 167.893 C 78.400 166.619,77.310 164.000,76.780 164.000 C 76.600 164.000,76.229 163.384,75.957 162.630 C 75.684 161.877,75.043 161.037,74.531 160.763 C 74.019 160.489,73.600 160.047,73.600 159.781 C 73.600 159.515,73.015 159.067,72.300 158.785 C 71.585 158.503,70.727 157.939,70.394 157.531 C 68.508 155.222,46.016 155.189,43.489 157.491 C 43.000 157.937,41.642 158.524,40.471 158.797 C 39.301 159.070,37.940 159.696,37.449 160.188 C 36.957 160.680,35.890 161.207,35.077 161.359 C 34.265 161.512,33.166 162.071,32.635 162.602 C 32.103 163.133,31.160 163.695,30.539 163.851 C 29.918 164.007,29.090 164.540,28.700 165.037 C 28.310 165.533,27.451 166.057,26.792 166.202 C 26.133 166.347,25.407 166.812,25.180 167.237 C 24.528 168.455,19.523 170.956,18.431 170.610 C 16.913 170.128,16.800 168.878,16.800 152.553 L 16.800 136.744 18.444 134.794 C 19.403 133.657,20.549 132.743,21.194 132.601 C 21.802 132.468,22.705 131.927,23.200 131.400 C 23.695 130.873,24.595 130.333,25.200 130.200 C 25.805 130.067,26.711 129.521,27.214 128.985 C 27.717 128.450,28.774 127.897,29.564 127.756 C 30.354 127.614,31.360 127.071,31.800 126.548 C 32.296 125.958,33.285 125.472,34.404 125.268 C 35.424 125.082,36.686 124.497,37.307 123.921 C 38.030 123.251,39.034 122.833,40.244 122.696 C 41.256 122.582,42.575 122.126,43.175 121.682 C 44.517 120.690,46.873 120.007,49.000 119.995 C 50.148 119.989,50.849 119.723,51.482 119.055 C 52.263 118.231,52.943 118.076,57.379 117.710 C 60.616 117.443,62.728 117.077,63.337 116.678 C 65.352 115.358,74.703 115.419,78.165 116.774 "
            stroke="none" fill="#fcfbfb" fill-rule="evenodd"></path>
        <path id="path2"
            d="M61.341 118.231 C 56.762 118.795,53.974 119.341,52.649 119.931 C 51.576 120.409,50.166 120.800,49.516 120.800 C 48.866 120.800,47.134 121.324,45.667 121.964 C 44.200 122.604,42.192 123.342,41.204 123.605 C 40.216 123.868,38.954 124.405,38.400 124.800 C 37.846 125.195,36.637 125.721,35.714 125.969 C 34.791 126.218,33.777 126.680,33.460 126.997 C 33.144 127.314,32.100 127.885,31.142 128.268 C 30.184 128.650,29.044 129.293,28.608 129.697 C 28.172 130.101,27.362 130.537,26.808 130.667 C 26.254 130.797,25.350 131.309,24.800 131.805 C 24.250 132.301,23.131 132.941,22.314 133.229 C 21.369 133.561,20.385 134.366,19.614 135.441 L 18.400 137.131 18.400 151.992 C 18.400 161.471,18.550 167.133,18.814 167.626 C 19.651 169.189,22.468 168.121,27.260 164.424 C 27.843 163.974,28.653 163.480,29.060 163.327 C 29.467 163.174,30.736 162.453,31.881 161.724 C 33.025 160.996,34.226 160.400,34.550 160.400 C 34.874 160.400,35.647 159.973,36.269 159.452 C 36.891 158.930,38.030 158.368,38.800 158.202 C 39.570 158.036,40.680 157.561,41.268 157.146 C 41.855 156.731,43.255 156.217,44.379 156.004 C 45.503 155.791,47.992 155.237,49.910 154.773 C 53.840 153.823,64.526 153.746,65.639 154.660 C 65.948 154.913,67.212 155.354,68.449 155.639 C 72.486 156.571,77.722 161.590,78.839 165.600 C 79.115 166.590,79.683 168.068,80.103 168.885 C 81.669 171.935,81.714 173.512,81.858 229.600 C 82.012 289.676,81.880 285.824,83.801 286.626 C 86.285 287.664,122.142 287.458,123.200 286.400 C 123.993 285.607,124.000 285.067,124.000 228.525 L 124.000 171.450 124.882 170.163 C 125.367 169.455,126.312 168.558,126.982 168.169 C 127.652 167.781,128.650 167.126,129.200 166.714 C 131.203 165.215,134.390 163.200,134.760 163.200 C 134.968 163.200,135.647 162.781,136.269 162.269 C 136.891 161.757,138.175 161.035,139.123 160.663 C 140.071 160.292,141.212 159.648,141.658 159.232 C 142.104 158.816,143.093 158.359,143.855 158.216 C 144.617 158.073,146.068 157.516,147.080 156.978 C 148.091 156.440,149.233 156.000,149.616 156.000 C 149.999 156.000,152.044 155.550,154.161 155.000 C 161.906 152.988,173.338 154.131,177.751 157.358 C 180.802 159.590,185.182 166.144,185.210 168.519 C 185.216 169.004,185.705 170.750,186.298 172.400 L 187.375 175.400 187.506 230.655 C 187.631 283.524,187.668 285.938,188.366 286.569 C 189.369 287.477,227.839 287.365,228.939 286.451 C 229.548 285.945,229.601 281.379,229.614 228.451 C 229.625 184.146,229.740 170.800,230.114 170.126 C 230.556 169.331,236.019 165.200,236.627 165.200 C 236.769 165.200,237.419 164.750,238.073 164.200 C 238.727 163.650,239.504 163.200,239.800 163.200 C 240.096 163.200,240.859 162.762,241.496 162.226 C 242.133 161.690,243.451 160.939,244.427 160.557 C 245.402 160.174,246.613 159.545,247.119 159.158 C 247.624 158.772,248.614 158.330,249.319 158.178 C 250.023 158.025,251.077 157.564,251.659 157.152 C 252.242 156.740,254.402 156.053,256.459 155.625 C 258.517 155.197,260.920 154.657,261.800 154.425 C 265.068 153.563,273.480 153.885,276.738 154.997 C 278.354 155.549,279.893 156.000,280.158 156.000 C 280.983 156.000,285.453 159.469,286.431 160.868 C 286.943 161.601,287.499 162.297,287.667 162.415 C 287.835 162.533,288.633 164.243,289.440 166.215 C 292.194 172.939,292.121 171.259,292.281 231.449 L 292.425 285.498 293.254 286.249 C 294.640 287.503,331.760 287.618,333.343 286.373 L 334.422 285.524 334.270 225.462 C 334.113 163.341,333.985 158.297,332.470 154.763 C 332.045 153.772,331.568 152.160,331.409 151.181 C 331.250 150.201,330.624 148.410,330.018 147.200 C 329.412 145.990,328.779 144.550,328.611 144.000 C 328.444 143.450,327.878 142.427,327.354 141.727 C 326.829 141.026,326.400 140.324,326.400 140.166 C 326.400 139.156,319.807 131.462,317.174 129.400 C 316.051 128.520,314.689 127.395,314.148 126.900 C 313.607 126.405,313.017 126.000,312.838 126.000 C 312.658 126.000,311.812 125.524,310.956 124.943 C 310.100 124.361,308.590 123.616,307.600 123.287 C 306.610 122.959,305.528 122.455,305.195 122.169 C 304.862 121.882,303.692 121.437,302.595 121.178 C 301.498 120.920,299.430 120.294,298.000 119.786 C 290.188 117.012,269.156 117.111,262.667 119.953 C 261.604 120.419,260.190 120.800,259.525 120.800 C 258.860 120.800,257.424 121.248,256.333 121.796 C 255.242 122.344,253.326 123.085,252.075 123.443 C 250.824 123.801,249.517 124.341,249.171 124.644 C 248.825 124.948,247.683 125.454,246.633 125.770 C 245.583 126.086,244.426 126.596,244.062 126.904 C 243.698 127.212,242.567 127.771,241.549 128.147 C 240.531 128.522,239.387 129.172,239.008 129.592 C 238.628 130.011,237.820 130.464,237.213 130.597 C 236.605 130.731,235.769 131.147,235.354 131.522 C 234.939 131.898,233.070 133.087,231.200 134.165 C 229.330 135.243,227.170 136.626,226.400 137.237 C 225.630 137.849,224.503 138.471,223.896 138.619 C 223.289 138.767,222.694 139.049,222.573 139.244 C 222.154 139.922,220.826 139.596,220.352 138.700 C 218.519 135.236,210.357 127.221,207.359 125.942 C 206.721 125.670,205.840 125.135,205.400 124.754 C 204.960 124.372,203.610 123.672,202.401 123.197 C 201.192 122.722,200.017 122.180,199.792 121.993 C 199.566 121.806,197.964 121.273,196.231 120.808 C 194.498 120.344,192.729 119.776,192.299 119.546 C 187.651 117.058,165.804 117.223,158.200 119.803 C 156.660 120.325,154.584 120.859,153.587 120.988 C 152.590 121.117,151.203 121.570,150.506 121.994 C 149.809 122.418,148.250 123.023,147.043 123.338 C 145.835 123.654,144.342 124.269,143.724 124.706 C 143.106 125.143,142.023 125.625,141.319 125.778 C 140.614 125.930,139.591 126.407,139.045 126.836 C 138.499 127.266,137.280 127.889,136.337 128.222 C 135.394 128.555,134.258 129.167,133.811 129.582 C 133.365 129.997,132.235 130.640,131.300 131.011 C 130.365 131.383,129.600 131.835,129.600 132.016 C 129.600 132.198,129.245 132.459,128.811 132.597 C 128.376 132.734,127.121 133.467,126.020 134.224 C 124.920 134.981,123.921 135.600,123.800 135.600 C 123.543 135.600,119.863 138.010,118.362 139.162 L 117.324 139.958 115.866 138.968 C 115.065 138.423,114.145 137.468,113.823 136.845 C 113.095 135.436,107.022 129.178,105.400 128.164 C 104.740 127.751,103.965 127.096,103.677 126.707 C 103.390 126.318,102.956 126.000,102.712 126.000 C 102.469 126.000,101.444 125.481,100.435 124.846 C 99.426 124.211,97.881 123.462,97.002 123.182 C 96.123 122.902,94.611 122.252,93.642 121.737 C 92.674 121.221,91.460 120.800,90.945 120.800 C 90.430 120.800,88.882 120.364,87.504 119.832 C 82.179 117.773,70.736 117.073,61.341 118.231 M80.800 119.370 C 82.890 119.674,85.140 120.201,85.800 120.540 C 86.460 120.878,88.219 121.350,89.709 121.587 C 91.359 121.850,92.712 122.312,93.168 122.768 C 93.581 123.181,94.522 123.638,95.259 123.784 C 97.035 124.136,98.800 124.829,98.800 125.174 C 98.800 125.494,101.416 126.800,102.056 126.800 C 102.292 126.800,102.839 127.250,103.271 127.800 C 103.704 128.350,104.259 128.800,104.504 128.800 C 105.194 128.800,112.508 136.496,113.346 138.105 C 113.807 138.990,114.758 139.891,115.832 140.461 L 117.572 141.384 118.905 140.092 C 119.638 139.381,120.430 138.800,120.664 138.800 C 120.898 138.800,121.739 138.284,122.532 137.654 C 123.326 137.023,124.520 136.282,125.187 136.005 C 125.854 135.729,126.400 135.343,126.400 135.146 C 126.400 134.950,127.345 134.371,128.500 133.860 C 129.655 133.348,130.847 132.630,131.149 132.265 C 131.451 131.899,131.952 131.600,132.263 131.600 C 132.849 131.600,134.616 130.577,135.518 129.716 C 135.803 129.444,136.724 129.036,137.566 128.809 C 138.407 128.583,139.524 128.066,140.048 127.661 C 140.572 127.257,141.885 126.628,142.967 126.264 C 144.049 125.901,145.262 125.306,145.664 124.942 C 146.065 124.579,147.298 124.139,148.403 123.964 C 149.507 123.789,150.936 123.273,151.578 122.816 C 152.283 122.314,153.824 121.846,155.472 121.634 C 156.973 121.441,159.010 120.974,160.000 120.596 C 166.174 118.237,184.960 118.238,191.200 120.597 C 192.190 120.971,194.057 121.430,195.349 121.615 C 196.710 121.811,198.057 122.278,198.549 122.724 C 199.017 123.148,199.940 123.615,200.600 123.761 C 202.348 124.149,204.000 124.851,204.000 125.205 C 204.000 125.375,204.701 125.794,205.558 126.136 C 206.414 126.479,207.589 127.199,208.169 127.736 C 208.748 128.273,209.751 128.931,210.398 129.199 C 211.044 129.467,211.679 130.017,211.807 130.423 C 211.936 130.828,212.394 131.271,212.825 131.408 C 213.256 131.545,213.875 132.171,214.200 132.800 C 214.525 133.429,215.108 134.048,215.496 134.177 C 215.883 134.306,216.470 134.935,216.800 135.575 C 218.423 138.725,220.838 141.277,221.935 141.002 C 223.201 140.684,226.132 138.942,227.437 137.731 C 227.953 137.253,228.785 136.734,229.287 136.579 C 229.789 136.423,230.725 135.914,231.366 135.448 C 232.008 134.981,233.186 134.240,233.985 133.800 C 235.632 132.893,237.155 131.974,240.118 130.100 C 241.248 129.385,242.480 128.800,242.856 128.800 C 243.231 128.800,244.047 128.382,244.669 127.870 C 245.291 127.359,246.867 126.644,248.170 126.280 C 249.474 125.917,250.644 125.462,250.770 125.270 C 251.179 124.647,252.558 124.108,254.441 123.835 C 255.454 123.689,256.661 123.216,257.124 122.785 C 257.667 122.279,258.974 121.859,260.816 121.598 C 262.384 121.375,264.507 120.844,265.534 120.417 C 270.767 118.239,290.406 118.229,295.631 120.401 C 296.637 120.820,298.682 121.357,300.174 121.596 C 301.666 121.834,303.165 122.308,303.505 122.648 C 304.278 123.421,305.765 124.000,306.977 124.000 C 307.486 124.000,308.149 124.299,308.451 124.664 C 308.753 125.029,309.810 125.704,310.800 126.164 C 313.615 127.473,322.800 135.632,322.800 136.824 C 322.800 136.989,323.430 137.878,324.200 138.800 C 324.970 139.722,325.600 140.704,325.600 140.983 C 325.600 141.262,326.140 142.169,326.800 143.000 C 327.460 143.831,328.001 144.800,328.002 145.155 C 328.002 145.510,328.542 146.880,329.200 148.200 C 329.858 149.520,330.398 150.934,330.398 151.342 C 330.401 152.557,331.643 156.979,332.052 157.232 C 333.302 158.005,333.896 284.525,332.654 285.555 C 332.261 285.881,326.817 285.979,313.154 285.904 L 294.200 285.800 293.990 232.000 C 293.874 202.410,293.623 177.750,293.432 177.200 C 293.241 176.650,292.954 176.020,292.793 175.800 C 292.633 175.580,292.381 174.050,292.232 172.400 C 291.938 169.131,291.378 166.936,290.600 166.000 C 290.326 165.670,289.873 164.689,289.593 163.821 C 289.314 162.952,288.650 161.782,288.117 161.221 C 287.584 160.659,286.885 159.705,286.564 159.100 C 286.242 158.495,285.818 158.000,285.620 158.000 C 285.423 158.000,284.707 157.534,284.031 156.964 C 283.354 156.395,281.603 155.495,280.141 154.964 C 278.678 154.434,277.211 153.775,276.879 153.500 C 275.663 152.490,261.000 152.826,258.475 153.922 C 257.307 154.429,255.447 154.951,254.343 155.081 C 253.239 155.212,251.766 155.703,251.068 156.172 C 250.371 156.641,249.000 157.262,248.021 157.552 C 247.043 157.842,245.676 158.511,244.984 159.040 C 244.291 159.568,243.440 160.000,243.093 160.000 C 242.746 160.000,241.953 160.409,241.331 160.909 C 240.709 161.409,239.486 162.144,238.613 162.544 C 237.740 162.943,236.800 163.594,236.523 163.989 C 236.245 164.385,235.551 164.826,234.980 164.969 C 234.408 165.113,233.549 165.590,233.070 166.031 C 232.592 166.471,231.578 167.231,230.817 167.720 C 228.788 169.024,228.883 166.136,228.840 228.082 L 228.800 285.564 227.500 285.797 C 226.785 285.925,217.740 285.978,207.400 285.915 L 188.600 285.800 188.400 229.200 L 188.200 172.600 187.152 170.800 C 186.576 169.810,185.980 168.146,185.828 167.102 C 185.674 166.043,185.144 164.717,184.631 164.102 C 184.124 163.496,183.571 162.557,183.401 162.016 C 183.100 161.054,179.676 157.206,179.118 157.202 C 178.963 157.201,178.386 156.750,177.836 156.200 C 177.286 155.650,176.405 155.200,175.878 155.200 C 175.351 155.200,174.037 154.705,172.960 154.100 L 171.000 153.000 162.800 153.000 C 155.006 153.000,154.531 153.044,153.210 153.890 C 152.414 154.401,150.824 154.893,149.486 155.045 C 148.141 155.197,146.610 155.673,145.876 156.167 C 145.174 156.639,143.792 157.264,142.805 157.557 C 141.817 157.850,140.499 158.519,139.874 159.045 C 139.250 159.570,138.399 160.000,137.983 160.000 C 137.568 160.000,136.637 160.513,135.914 161.140 C 135.191 161.767,134.136 162.392,133.569 162.530 C 133.002 162.668,132.049 163.234,131.452 163.787 C 130.855 164.340,129.958 164.896,129.460 165.021 C 128.961 165.146,128.224 165.687,127.821 166.224 C 127.418 166.761,126.881 167.200,126.629 167.200 C 126.376 167.200,125.547 167.720,124.785 168.356 L 123.400 169.512 123.296 227.220 C 123.221 268.851,123.068 285.077,122.747 285.464 C 122.180 286.147,85.639 286.263,84.374 285.586 C 83.615 285.180,83.600 284.168,83.600 232.670 C 83.600 188.837,83.507 179.807,83.037 177.984 C 82.727 176.783,82.278 174.181,82.039 172.202 C 81.746 169.772,81.347 168.254,80.811 167.529 C 80.374 166.938,79.842 165.677,79.628 164.727 C 79.415 163.777,78.916 162.725,78.520 162.390 C 78.124 162.054,77.456 161.107,77.035 160.285 C 76.579 159.396,75.411 158.222,74.152 157.386 C 72.988 156.613,71.927 155.805,71.794 155.590 C 71.661 155.376,71.149 155.200,70.655 155.200 C 70.161 155.200,68.777 154.705,67.579 154.100 C 64.477 152.534,51.570 152.405,48.112 153.906 C 46.963 154.404,45.163 154.921,44.112 155.054 C 43.060 155.186,41.480 155.700,40.600 156.194 C 39.720 156.688,38.280 157.322,37.400 157.604 C 36.520 157.886,35.291 158.540,34.669 159.058 C 34.047 159.576,33.217 160.000,32.824 160.000 C 32.431 160.000,31.431 160.540,30.600 161.200 C 29.769 161.860,28.837 162.400,28.527 162.400 C 28.217 162.400,27.512 162.852,26.960 163.404 C 26.408 163.956,25.309 164.678,24.519 165.008 C 23.729 165.338,22.634 166.057,22.085 166.606 C 20.071 168.619,20.000 168.118,20.000 151.970 C 20.000 135.198,19.914 135.692,23.103 134.132 C 24.298 133.548,25.367 132.831,25.479 132.539 C 25.591 132.247,26.381 131.820,27.236 131.590 C 28.090 131.360,29.268 130.728,29.853 130.186 C 30.439 129.643,31.574 129.022,32.376 128.806 C 33.178 128.590,34.224 128.051,34.700 127.607 C 35.177 127.163,35.889 126.799,36.283 126.798 C 36.677 126.797,38.174 126.194,39.609 125.457 C 41.044 124.721,43.043 123.994,44.050 123.843 C 45.058 123.692,46.261 123.216,46.724 122.785 C 47.254 122.291,48.566 121.857,50.282 121.610 C 53.167 121.193,54.776 120.780,56.400 120.038 C 59.033 118.837,74.282 118.419,80.800 119.370 "
            stroke="none" fill="#ec8c8c" fill-rule="evenodd"></path>
        <path id="path3"
            d="M64.400 117.429 L 62.200 117.969 64.600 117.741 C 67.269 117.488,72.533 117.508,76.200 117.786 L 78.600 117.968 76.000 117.402 C 72.775 116.702,67.316 116.714,64.400 117.429 M170.023 117.208 C 167.201 117.806,167.193 118.012,170.000 117.800 C 174.044 117.495,176.712 117.479,180.400 117.739 C 182.949 117.919,183.450 117.882,182.400 117.592 C 180.355 117.026,172.090 116.769,170.023 117.208 M275.200 117.225 C 273.990 117.438,272.865 117.654,272.700 117.706 C 272.535 117.758,276.099 117.800,280.620 117.800 C 285.271 117.800,288.267 117.668,287.520 117.495 C 285.309 116.985,277.536 116.815,275.200 117.225 M55.137 118.554 C 53.892 118.821,52.618 119.253,52.306 119.512 C 51.993 119.772,51.031 120.149,50.169 120.352 C 48.941 120.640,48.828 120.728,49.649 120.760 C 50.226 120.782,51.576 120.410,52.649 119.934 C 53.722 119.457,56.220 118.846,58.200 118.576 C 61.361 118.145,61.531 118.084,59.600 118.076 C 58.390 118.071,56.382 118.286,55.137 118.554 M82.400 118.552 C 84.270 118.837,86.752 119.459,87.915 119.935 C 89.078 120.411,90.428 120.782,90.915 120.761 C 91.499 120.735,91.256 120.558,90.200 120.239 C 89.320 119.974,87.945 119.457,87.144 119.091 C 86.336 118.722,84.200 118.339,82.344 118.230 L 79.000 118.035 82.400 118.552 M160.833 118.453 C 159.642 118.651,158.421 119.017,158.120 119.267 C 157.819 119.516,156.634 119.948,155.486 120.226 C 154.067 120.570,153.750 120.743,154.496 120.766 C 155.098 120.785,156.538 120.426,157.696 119.968 C 158.853 119.511,161.420 118.903,163.400 118.616 C 166.251 118.204,166.584 118.096,165.000 118.095 C 163.900 118.094,162.025 118.255,160.833 118.453 M187.800 118.616 C 189.780 118.903,192.347 119.511,193.504 119.968 C 194.662 120.426,195.922 120.788,196.304 120.773 C 196.687 120.759,196.229 120.506,195.287 120.212 C 194.345 119.918,193.349 119.490,193.074 119.261 C 192.448 118.741,187.936 117.991,185.800 118.051 C 184.767 118.080,185.476 118.281,187.800 118.616 M265.961 118.405 C 264.950 118.576,263.561 119.007,262.874 119.362 C 262.188 119.717,260.945 120.167,260.113 120.363 C 258.867 120.657,258.788 120.727,259.667 120.760 C 260.254 120.782,261.604 120.419,262.667 119.954 C 263.730 119.489,266.220 118.881,268.200 118.602 C 271.009 118.207,271.361 118.096,269.800 118.095 C 268.700 118.095,266.973 118.234,265.961 118.405 M292.800 118.585 C 294.670 118.851,297.152 119.459,298.315 119.935 C 299.478 120.411,300.828 120.782,301.315 120.761 C 301.886 120.735,301.632 120.558,300.600 120.261 C 299.720 120.007,298.640 119.597,298.200 119.348 C 296.997 118.668,293.402 117.994,291.280 118.050 C 289.725 118.092,289.988 118.184,292.800 118.585 M44.800 121.756 C 43.810 122.261,42.100 122.913,41.000 123.205 C 39.900 123.497,38.564 124.070,38.031 124.479 C 37.499 124.888,36.299 125.415,35.365 125.651 C 34.431 125.886,33.295 126.424,32.841 126.848 C 32.387 127.271,31.498 127.720,30.866 127.847 C 30.233 127.973,29.105 128.599,28.358 129.237 C 27.611 129.876,26.677 130.399,26.282 130.399 C 25.887 130.400,25.130 130.833,24.601 131.363 C 24.072 131.892,23.007 132.534,22.235 132.789 C 21.397 133.065,20.180 134.029,19.216 135.181 L 17.600 137.111 17.602 151.856 C 17.604 160.596,17.770 167.195,18.010 168.062 L 18.416 169.523 20.403 168.999 C 21.496 168.711,23.067 167.943,23.895 167.292 C 24.723 166.642,25.985 165.810,26.700 165.445 C 27.415 165.079,28.000 164.633,28.000 164.454 C 28.000 164.275,28.714 163.892,29.586 163.605 C 30.458 163.317,31.583 162.622,32.086 162.061 L 33.000 161.041 31.800 161.800 C 31.140 162.217,30.052 162.838,29.382 163.179 C 28.712 163.521,27.722 164.121,27.182 164.513 C 18.214 171.024,18.400 171.290,18.400 151.992 L 18.400 137.131 19.614 135.441 C 20.385 134.366,21.369 133.561,22.314 133.229 C 23.131 132.941,24.250 132.301,24.800 131.805 C 25.350 131.309,26.254 130.797,26.808 130.667 C 27.362 130.537,28.172 130.101,28.608 129.697 C 29.044 129.293,30.184 128.650,31.142 128.268 C 32.100 127.885,33.144 127.314,33.460 126.997 C 33.777 126.680,34.791 126.218,35.714 125.969 C 36.637 125.721,37.844 125.199,38.396 124.810 C 38.948 124.422,40.416 123.811,41.658 123.453 C 44.461 122.645,48.483 120.803,47.400 120.823 C 46.960 120.831,45.790 121.251,44.800 121.756 M93.642 121.737 C 94.611 122.252,96.123 122.902,97.002 123.182 C 97.881 123.462,99.426 124.211,100.435 124.846 C 101.444 125.481,102.469 126.000,102.712 126.000 C 102.956 126.000,103.390 126.318,103.677 126.707 C 103.965 127.096,104.740 127.751,105.400 128.164 C 107.022 129.178,113.095 135.436,113.823 136.845 C 114.145 137.468,115.065 138.423,115.866 138.968 L 117.324 139.958 118.362 139.162 C 119.863 138.010,123.543 135.600,123.800 135.600 C 123.921 135.600,124.920 134.981,126.020 134.224 C 127.121 133.467,128.376 132.734,128.811 132.597 C 129.245 132.459,129.600 132.198,129.600 132.016 C 129.600 131.835,130.365 131.383,131.300 131.011 C 132.235 130.640,133.365 129.997,133.811 129.582 C 134.258 129.167,135.394 128.555,136.337 128.222 C 137.280 127.889,138.499 127.266,139.045 126.836 C 139.591 126.407,140.614 125.930,141.319 125.778 C 142.023 125.625,143.106 125.143,143.724 124.706 C 144.342 124.269,145.872 123.645,147.124 123.319 C 148.376 122.993,149.623 122.542,149.896 122.317 C 150.169 122.092,151.069 121.667,151.896 121.372 C 153.038 120.964,153.177 120.831,152.471 120.818 C 151.960 120.808,150.790 121.230,149.871 121.755 C 148.952 122.281,147.264 122.926,146.120 123.190 C 144.976 123.454,143.837 123.915,143.589 124.213 C 143.341 124.512,142.207 125.059,141.069 125.428 C 139.931 125.798,138.640 126.415,138.200 126.801 C 137.760 127.186,136.720 127.719,135.890 127.985 C 135.059 128.251,133.889 128.879,133.290 129.380 C 132.690 129.881,131.750 130.430,131.200 130.600 C 130.650 130.770,129.691 131.335,129.069 131.855 C 128.447 132.375,127.696 132.800,127.400 132.800 C 127.104 132.800,126.353 133.225,125.731 133.745 C 125.109 134.265,123.880 135.082,123.000 135.561 C 121.228 136.526,118.923 138.058,118.000 138.885 C 117.246 139.561,114.932 138.152,114.000 136.449 C 113.319 135.205,112.768 134.570,109.400 131.151 C 108.080 129.811,106.325 128.282,105.500 127.752 C 104.675 127.223,104.000 126.630,104.000 126.434 C 104.000 126.238,103.423 125.877,102.717 125.631 C 102.012 125.385,101.067 124.846,100.617 124.432 C 100.168 124.019,98.963 123.401,97.940 123.058 C 96.916 122.716,95.476 122.069,94.740 121.620 C 94.003 121.170,93.058 120.802,92.640 120.801 C 92.181 120.801,92.577 121.170,93.642 121.737 M198.200 121.290 C 198.860 121.525,199.755 121.961,200.189 122.258 C 201.606 123.231,201.792 122.827,200.400 121.800 C 199.655 121.250,198.585 120.814,198.022 120.832 C 197.025 120.862,197.029 120.874,198.200 121.290 M255.400 121.790 C 253.330 123.065,253.809 123.076,256.273 121.810 C 257.333 121.266,257.930 120.817,257.600 120.812 C 257.270 120.808,256.280 121.248,255.400 121.790 M303.400 121.284 C 304.060 121.515,304.870 121.926,305.200 122.197 C 305.530 122.468,306.610 122.959,307.600 123.287 C 308.590 123.616,310.100 124.361,310.956 124.943 C 311.812 125.524,312.757 126.000,313.056 126.000 C 313.355 126.000,313.600 126.178,313.600 126.395 C 313.600 126.612,314.320 127.245,315.201 127.800 C 317.106 129.003,322.505 134.374,323.826 136.380 C 325.241 138.530,326.381 139.852,326.391 139.355 C 326.396 139.110,325.977 138.480,325.459 137.955 C 324.941 137.430,324.290 136.566,324.011 136.037 C 323.031 134.175,317.830 128.900,315.683 127.590 C 315.087 127.227,314.353 126.630,314.051 126.265 C 313.749 125.899,313.268 125.600,312.982 125.600 C 312.696 125.600,311.953 125.172,311.331 124.649 C 310.709 124.126,309.363 123.415,308.340 123.068 C 307.316 122.720,305.876 122.069,305.140 121.620 C 304.403 121.170,303.440 120.817,303.000 120.833 C 302.420 120.855,302.531 120.979,303.400 121.284 M203.454 123.592 C 204.364 123.997,205.231 124.527,205.382 124.770 C 205.532 125.013,206.283 125.475,207.052 125.796 C 210.261 127.137,218.424 135.056,220.352 138.700 C 220.826 139.596,222.154 139.922,222.573 139.244 C 222.694 139.049,223.289 138.765,223.896 138.613 C 224.503 138.462,225.622 137.857,226.382 137.269 C 227.142 136.681,229.032 135.437,230.582 134.505 C 232.132 133.572,233.112 132.807,232.759 132.805 C 232.407 132.802,231.507 133.246,230.759 133.791 C 230.012 134.337,228.950 135.008,228.400 135.282 C 227.850 135.557,227.130 136.073,226.800 136.429 C 226.172 137.106,224.281 138.038,222.135 138.728 C 220.961 139.105,220.836 139.053,220.406 138.014 C 220.151 137.398,219.415 136.389,218.771 135.772 C 218.127 135.155,217.600 134.518,217.600 134.356 C 217.600 133.981,211.576 128.000,211.199 128.000 C 211.045 128.000,210.354 127.460,209.663 126.800 C 208.972 126.140,208.149 125.600,207.834 125.600 C 207.519 125.600,206.753 125.188,206.131 124.684 C 204.889 123.679,203.033 122.784,202.281 122.828 C 202.017 122.844,202.544 123.188,203.454 123.592 M250.800 123.351 C 248.993 123.953,246.395 125.597,247.246 125.599 C 247.601 125.599,248.321 125.263,248.846 124.851 C 249.371 124.439,250.700 123.827,251.800 123.492 C 252.900 123.157,253.440 122.883,253.000 122.884 C 252.560 122.884,251.570 123.094,250.800 123.351 M244.586 125.981 C 243.612 126.376,242.509 127.600,243.127 127.600 C 243.361 127.600,243.675 127.402,243.824 127.160 C 243.974 126.919,244.659 126.476,245.348 126.176 C 246.674 125.599,245.972 125.419,244.586 125.981 M238.927 128.954 C 238.304 129.479,237.165 130.174,236.397 130.499 C 235.628 130.824,234.657 131.474,234.238 131.945 C 233.214 133.094,233.611 133.027,235.025 131.813 C 235.656 131.270,236.672 130.716,237.282 130.582 C 237.892 130.448,238.503 130.158,238.639 129.937 C 238.776 129.716,239.453 129.190,240.144 128.769 C 240.937 128.285,241.153 128.002,240.731 128.001 C 240.363 128.001,239.551 128.429,238.927 128.954 M326.400 140.168 C 326.400 140.325,326.829 141.026,327.354 141.727 C 327.878 142.427,328.444 143.450,328.610 144.000 C 329.195 145.929,331.183 149.436,331.192 148.554 C 331.196 148.089,330.846 147.258,330.414 146.708 C 329.981 146.158,329.345 144.877,329.000 143.860 C 328.461 142.272,326.400 139.346,326.400 140.168 M331.435 151.181 C 331.579 152.160,332.036 153.750,332.449 154.714 C 332.862 155.678,333.225 156.946,333.254 157.533 C 333.297 158.363,333.345 158.416,333.473 157.773 C 333.667 156.790,333.153 154.625,332.006 151.600 L 331.172 149.400 331.435 151.181 M49.000 154.995 C 44.570 156.135,45.867 156.286,50.907 155.217 C 52.938 154.786,55.230 154.365,56.000 154.281 C 56.785 154.195,56.346 154.115,55.000 154.098 C 53.680 154.082,50.980 154.485,49.000 154.995 M61.600 154.369 C 62.590 154.547,64.300 154.985,65.400 155.342 C 66.500 155.699,67.760 155.974,68.200 155.954 C 68.709 155.930,68.491 155.749,67.600 155.458 C 66.830 155.206,65.956 154.843,65.658 154.651 C 65.360 154.458,63.920 154.243,62.458 154.173 C 60.098 154.059,60.001 154.081,61.600 154.369 M154.000 155.022 C 150.141 156.083,150.937 156.333,155.075 155.359 C 156.574 155.007,159.060 154.581,160.600 154.413 L 163.400 154.109 160.400 154.098 C 158.463 154.091,156.195 154.418,154.000 155.022 M165.600 154.260 C 169.496 154.847,175.866 156.675,176.823 157.481 C 177.424 157.986,178.128 158.400,178.388 158.400 C 178.649 158.400,178.353 157.976,177.731 157.457 C 176.193 156.174,168.993 153.985,166.537 154.054 C 165.472 154.084,165.050 154.177,165.600 154.260 M261.600 154.465 C 260.830 154.676,259.210 155.052,258.000 155.300 C 256.790 155.548,256.120 155.821,256.510 155.907 C 256.901 155.993,259.061 155.691,261.310 155.237 C 263.560 154.782,265.850 154.343,266.400 154.260 C 266.950 154.177,266.410 154.103,265.200 154.095 C 263.990 154.088,262.370 154.254,261.600 154.465 M271.400 154.291 C 272.060 154.386,273.856 154.809,275.392 155.231 C 279.267 156.298,279.971 156.152,276.600 154.980 C 275.024 154.432,273.013 154.032,272.000 154.063 C 270.656 154.106,270.504 154.163,271.400 154.291 M42.800 156.289 C 42.470 156.413,41.750 156.827,41.200 157.210 C 40.650 157.593,39.930 157.994,39.600 158.102 C 39.270 158.209,39.528 158.228,40.174 158.144 C 40.819 158.059,41.655 157.712,42.031 157.372 C 42.407 157.032,43.228 156.600,43.857 156.411 C 44.624 156.181,44.737 156.068,44.200 156.066 C 43.760 156.064,43.130 156.165,42.800 156.289 M69.794 156.294 C 70.231 156.404,70.882 156.834,71.241 157.247 C 71.600 157.661,72.082 158.000,72.313 158.000 C 72.943 158.000,75.417 160.526,76.559 162.336 C 77.553 163.910,78.415 164.755,78.384 164.124 C 78.303 162.512,71.372 156.003,69.800 156.063 C 69.007 156.093,69.007 156.095,69.794 156.294 M147.080 156.978 C 146.068 157.516,144.617 158.073,143.855 158.216 C 143.093 158.359,142.104 158.816,141.658 159.232 C 141.212 159.648,140.071 160.292,139.123 160.663 C 138.175 161.035,136.891 161.757,136.269 162.269 C 135.647 162.781,134.968 163.200,134.760 163.200 C 134.390 163.200,131.203 165.215,129.200 166.714 C 128.650 167.126,127.652 167.781,126.982 168.169 C 126.312 168.558,125.367 169.455,124.882 170.163 L 124.000 171.450 124.000 228.525 C 124.000 285.067,123.993 285.607,123.200 286.400 C 122.255 287.345,86.669 287.671,84.051 286.758 C 81.925 286.017,82.003 288.043,81.953 232.126 C 81.928 203.127,81.767 178.320,81.596 177.000 C 81.309 174.783,81.297 174.844,81.440 177.800 C 81.525 179.560,81.596 204.628,81.598 233.506 L 81.600 286.012 82.900 286.804 C 84.148 287.565,84.965 287.597,103.430 287.599 L 122.661 287.600 123.530 286.674 L 124.400 285.748 124.400 228.555 L 124.400 171.361 126.015 169.681 C 126.903 168.756,127.777 168.000,127.956 168.000 C 128.136 168.000,128.769 167.550,129.362 167.000 C 129.956 166.450,130.616 166.000,130.830 166.000 C 131.044 166.000,132.135 165.370,133.255 164.600 C 134.374 163.830,135.512 163.200,135.783 163.200 C 136.054 163.200,136.588 162.855,136.970 162.434 C 137.351 162.012,138.639 161.271,139.832 160.787 C 141.024 160.303,142.000 159.753,142.000 159.565 C 142.000 159.376,143.035 158.926,144.300 158.563 C 145.565 158.200,146.823 157.725,147.096 157.506 C 147.369 157.287,148.269 156.867,149.096 156.572 C 150.079 156.221,150.309 156.029,149.760 156.018 C 149.297 156.008,148.091 156.440,147.080 156.978 M280.214 156.381 C 280.662 156.562,281.269 157.001,281.563 157.355 C 281.857 157.710,282.321 158.000,282.594 158.000 C 283.043 158.000,285.451 160.425,287.335 162.774 C 287.739 163.279,288.343 164.616,288.676 165.746 C 289.243 167.670,289.946 168.987,290.245 168.688 C 290.429 168.504,288.028 162.670,287.662 162.412 C 287.497 162.295,286.943 161.601,286.431 160.868 C 285.354 159.327,280.934 155.988,280.020 156.025 C 279.597 156.043,279.658 156.155,280.214 156.381 M251.605 157.182 C 251.058 157.603,250.041 158.053,249.346 158.184 C 248.650 158.314,247.658 158.745,247.141 159.141 C 246.623 159.537,245.402 160.174,244.427 160.557 C 243.451 160.939,242.133 161.690,241.496 162.226 C 240.859 162.762,240.096 163.200,239.800 163.200 C 239.504 163.200,238.753 163.619,238.131 164.132 C 237.509 164.644,236.659 165.189,236.243 165.341 C 235.826 165.494,235.585 165.718,235.706 165.839 C 235.975 166.108,238.399 164.895,238.401 164.490 C 238.402 164.330,239.194 163.875,240.160 163.478 C 241.126 163.080,242.233 162.405,242.620 161.978 C 243.007 161.550,243.575 161.200,243.882 161.200 C 244.562 161.200,246.773 160.084,247.466 159.392 C 247.743 159.114,248.862 158.673,249.952 158.412 C 251.042 158.150,252.247 157.590,252.629 157.168 C 253.521 156.182,252.895 156.191,251.605 157.182 M36.278 159.413 C 35.660 159.956,34.816 160.400,34.401 160.400 C 33.987 160.400,33.536 160.580,33.400 160.800 C 32.888 161.629,36.177 160.478,36.800 159.610 C 36.910 159.457,37.360 159.127,37.800 158.878 C 38.354 158.564,38.416 158.424,38.000 158.425 C 37.670 158.425,36.895 158.870,36.278 159.413 M179.774 159.480 C 180.118 160.184,180.647 160.904,180.948 161.080 C 181.249 161.256,181.982 162.435,182.577 163.700 C 183.172 164.965,183.797 166.000,183.967 166.000 C 184.506 166.000,182.101 161.640,180.595 159.885 C 179.259 158.330,179.195 158.298,179.774 159.480 M333.866 162.200 C 333.973 163.740,334.142 192.118,334.242 225.261 L 334.425 285.523 333.344 286.372 C 331.762 287.617,294.640 287.504,293.255 286.250 L 292.427 285.501 292.271 231.250 C 292.162 193.692,291.979 176.446,291.675 175.200 C 291.290 173.625,291.261 173.875,291.441 177.200 C 291.555 179.290,291.631 204.335,291.612 232.855 C 291.585 270.894,291.698 284.976,292.032 285.711 C 292.875 287.561,293.315 287.600,313.588 287.600 L 332.739 287.600 333.969 286.564 L 335.200 285.529 335.200 228.511 C 335.200 192.013,335.055 170.612,334.796 169.046 C 334.574 167.701,334.230 164.980,334.032 163.000 C 333.834 161.020,333.759 160.660,333.866 162.200 M78.650 166.000 C 78.783 166.770,79.176 168.030,79.524 168.800 C 79.872 169.570,80.389 170.920,80.673 171.800 L 81.190 173.400 81.019 171.891 C 80.925 171.062,80.488 169.622,80.049 168.691 C 79.610 167.761,79.062 166.460,78.830 165.800 C 78.411 164.605,78.410 164.606,78.650 166.000 M232.804 167.683 C 231.596 168.539,230.387 169.635,230.118 170.120 C 229.738 170.802,229.625 183.923,229.614 228.451 C 229.601 281.379,229.548 285.945,228.939 286.451 C 227.822 287.379,189.367 287.475,188.348 286.553 C 187.626 285.899,187.597 284.065,187.501 233.038 L 187.403 180.200 187.300 232.968 C 187.209 279.725,187.267 285.842,187.808 286.668 L 188.418 287.600 208.409 287.600 C 227.867 287.600,228.421 287.579,229.200 286.800 C 229.993 286.007,230.000 285.467,230.000 228.860 C 230.000 168.262,229.955 169.647,231.939 168.825 C 233.101 168.344,235.439 166.486,235.165 166.261 C 235.074 166.187,234.012 166.827,232.804 167.683 M184.446 167.000 C 184.515 168.631,185.115 169.987,185.154 168.600 C 185.173 167.940,185.013 167.130,184.800 166.800 C 184.481 166.306,184.418 166.341,184.446 167.000 M290.446 169.600 C 290.465 169.930,290.624 170.650,290.800 171.200 L 291.120 172.200 291.154 171.200 C 291.173 170.650,291.013 169.930,290.800 169.600 C 290.455 169.067,290.416 169.067,290.446 169.600 M185.200 170.574 C 185.200 170.890,185.397 171.655,185.637 172.274 C 185.878 172.893,186.313 174.480,186.605 175.800 C 187.021 177.678,187.143 177.909,187.168 176.862 C 187.186 176.126,186.822 174.281,186.361 172.762 C 185.541 170.062,185.200 169.419,185.200 170.574 "
            stroke="none" fill="#f1b0b0" fill-rule="evenodd"></path>
        <path id="path4"
            d="M65.640 115.866 C 64.893 115.972,63.856 116.338,63.337 116.678 C 62.728 117.077,60.616 117.443,57.379 117.710 C 52.943 118.076,52.263 118.231,51.482 119.055 C 50.849 119.723,50.148 119.989,49.000 119.995 C 46.873 120.007,44.517 120.690,43.175 121.682 C 42.575 122.126,41.256 122.582,40.244 122.696 C 39.034 122.833,38.030 123.251,37.307 123.921 C 36.686 124.497,35.424 125.082,34.404 125.268 C 33.285 125.472,32.296 125.958,31.800 126.548 C 31.360 127.071,30.354 127.614,29.564 127.756 C 28.774 127.897,27.717 128.450,27.214 128.985 C 26.711 129.521,25.805 130.067,25.200 130.200 C 24.595 130.333,23.695 130.873,23.200 131.400 C 22.705 131.927,21.802 132.468,21.194 132.601 C 20.549 132.743,19.403 133.657,18.444 134.794 L 16.800 136.744 16.800 152.553 C 16.800 168.878,16.913 170.128,18.431 170.610 C 19.523 170.956,24.528 168.455,25.180 167.237 C 25.407 166.812,26.133 166.347,26.792 166.202 C 27.451 166.057,28.310 165.533,28.700 165.037 C 29.090 164.540,29.918 164.007,30.539 163.851 C 31.160 163.695,32.103 163.133,32.635 162.602 C 33.166 162.071,34.265 161.512,35.077 161.359 C 35.890 161.207,36.957 160.680,37.449 160.188 C 37.940 159.696,39.301 159.070,40.471 158.797 C 41.642 158.524,43.000 157.937,43.489 157.491 C 46.016 155.189,68.508 155.222,70.394 157.531 C 70.727 157.939,71.585 158.503,72.300 158.785 C 73.015 159.067,73.600 159.515,73.600 159.781 C 73.600 160.047,74.019 160.489,74.531 160.763 C 75.043 161.037,75.684 161.877,75.957 162.630 C 76.229 163.384,76.600 164.000,76.780 164.000 C 77.310 164.000,78.400 166.619,78.400 167.893 C 78.400 168.537,78.894 169.950,79.497 171.032 L 80.594 173.000 80.797 229.600 C 80.909 260.730,81.141 286.480,81.313 286.821 C 82.294 288.772,82.616 288.801,103.262 288.787 C 124.535 288.772,123.219 288.922,124.900 286.314 C 125.558 285.293,125.600 281.828,125.600 228.214 C 125.600 194.593,125.748 171.200,125.961 171.200 C 126.159 171.200,126.510 170.660,126.740 170.000 C 126.972 169.336,127.446 168.800,127.803 168.800 C 128.158 168.800,129.273 168.170,130.282 167.400 C 131.290 166.630,132.346 166.000,132.628 166.000 C 132.911 166.000,133.470 165.595,133.871 165.100 C 134.272 164.605,135.320 163.949,136.200 163.642 C 137.080 163.336,138.196 162.661,138.681 162.142 C 139.165 161.624,139.946 161.200,140.416 161.200 C 140.885 161.200,142.019 160.675,142.935 160.033 C 143.851 159.391,145.384 158.742,146.342 158.590 C 147.301 158.439,148.435 157.965,148.863 157.537 C 151.181 155.219,172.529 155.138,175.300 157.436 C 175.905 157.938,177.030 158.576,177.800 158.854 C 178.570 159.133,179.200 159.605,179.200 159.903 C 179.200 160.201,179.718 160.930,180.351 161.523 C 180.983 162.115,181.730 163.320,182.009 164.200 C 182.288 165.080,182.940 166.309,183.458 166.931 C 184.021 167.606,184.400 168.583,184.400 169.357 C 184.400 171.373,185.168 175.235,185.919 177.000 C 186.546 178.473,186.616 182.922,186.800 232.858 C 186.994 285.503,187.023 287.141,187.762 287.958 C 188.517 288.793,188.701 288.800,208.480 288.800 L 228.436 288.800 229.418 287.818 L 230.400 286.836 230.400 229.065 L 230.400 171.293 231.956 169.888 C 232.811 169.114,233.875 168.367,234.319 168.226 C 234.763 168.085,235.225 167.712,235.346 167.397 C 235.466 167.083,236.246 166.541,237.077 166.194 C 237.909 165.846,238.952 165.240,239.395 164.846 C 239.838 164.452,240.772 163.904,241.471 163.628 C 242.170 163.352,243.050 162.787,243.426 162.371 C 243.802 161.956,244.710 161.503,245.443 161.366 C 246.176 161.228,247.186 160.719,247.688 160.234 C 248.189 159.750,249.726 159.048,251.102 158.674 C 252.479 158.301,253.938 157.662,254.344 157.256 C 254.941 156.659,256.005 156.460,259.842 156.225 C 262.459 156.065,265.378 155.790,266.330 155.613 C 269.312 155.060,279.908 156.491,280.648 157.548 C 280.977 158.016,281.486 158.400,281.781 158.400 C 282.536 158.400,285.838 161.622,286.167 162.680 C 286.318 163.163,286.772 163.664,287.176 163.792 C 287.720 163.965,287.982 164.590,288.182 166.196 C 288.354 167.573,288.846 168.922,289.527 169.884 L 290.600 171.400 290.800 228.839 C 291.018 291.394,290.836 286.977,293.251 288.226 C 294.170 288.702,297.675 288.799,313.680 288.794 L 333.000 288.788 334.600 287.435 L 336.200 286.081 336.307 229.741 C 336.414 173.248,336.293 166.872,335.063 164.406 C 334.676 163.630,334.400 162.117,334.400 160.767 C 334.400 156.842,333.626 152.294,332.752 151.079 C 332.308 150.463,331.800 149.040,331.623 147.919 C 331.416 146.612,331.005 145.649,330.478 145.240 C 330.025 144.888,329.529 143.907,329.376 143.061 C 329.217 142.189,328.598 141.012,327.948 140.347 C 327.317 139.701,326.800 138.917,326.800 138.604 C 326.800 138.292,326.395 137.623,325.900 137.118 C 325.405 136.613,324.502 135.435,323.894 134.500 C 323.286 133.565,322.607 132.800,322.386 132.800 C 322.164 132.800,321.787 132.370,321.547 131.844 C 321.308 131.318,320.679 130.691,320.150 130.450 C 319.621 130.209,318.982 129.559,318.730 129.006 C 318.478 128.453,318.029 128.000,317.732 128.000 C 317.435 128.000,316.648 127.479,315.981 126.842 C 315.315 126.206,314.192 125.447,313.485 125.158 C 312.778 124.868,311.891 124.243,311.513 123.768 C 311.097 123.247,310.148 122.800,309.113 122.637 C 308.107 122.480,307.144 122.034,306.780 121.560 C 306.348 120.997,305.309 120.606,303.368 120.275 C 301.705 119.992,300.133 119.451,299.481 118.937 C 298.598 118.241,297.630 118.025,294.493 117.822 C 292.223 117.675,289.766 117.254,288.600 116.811 C 284.664 115.316,277.031 115.380,272.400 116.947 C 271.410 117.282,268.838 117.673,266.685 117.816 C 263.356 118.038,262.599 118.221,261.627 119.038 C 260.919 119.634,259.974 120.001,259.142 120.002 C 257.203 120.005,254.728 120.759,253.777 121.635 C 253.325 122.053,252.096 122.512,251.047 122.656 C 249.998 122.799,248.486 123.361,247.687 123.903 C 246.888 124.445,245.441 125.127,244.470 125.419 C 243.500 125.711,242.360 126.321,241.937 126.775 C 241.515 127.229,240.766 127.600,240.273 127.600 C 239.390 127.600,238.091 128.336,236.672 129.642 C 236.272 130.010,235.432 130.414,234.805 130.539 C 234.172 130.666,233.606 131.071,233.533 131.450 C 233.448 131.887,232.751 132.289,231.600 132.566 C 230.398 132.856,229.674 133.288,229.420 133.866 C 229.211 134.342,228.576 134.825,228.010 134.938 C 227.444 135.051,226.285 135.697,225.435 136.372 C 224.585 137.047,223.479 137.600,222.978 137.600 C 222.476 137.600,221.788 137.706,221.449 137.836 C 221.021 138.001,220.754 137.755,220.572 137.030 C 220.428 136.457,219.925 135.668,219.455 135.278 C 218.985 134.887,218.405 134.215,218.167 133.784 C 217.929 133.353,217.337 132.820,216.851 132.600 C 216.364 132.380,215.866 131.801,215.744 131.314 C 215.621 130.827,215.211 130.330,214.832 130.210 C 214.454 130.090,213.747 129.454,213.260 128.796 C 212.774 128.138,212.034 127.600,211.615 127.600 C 211.196 127.600,210.741 127.244,210.603 126.808 C 210.464 126.372,209.597 125.678,208.676 125.266 C 207.754 124.854,206.657 124.130,206.238 123.658 C 205.805 123.171,204.998 122.800,204.369 122.800 C 203.760 122.800,202.753 122.379,202.131 121.864 C 200.707 120.685,198.725 120.000,196.740 120.000 C 195.893 120.000,195.200 119.826,195.200 119.614 C 195.200 118.792,193.219 118.222,188.752 117.757 C 185.935 117.465,183.571 116.995,182.752 116.567 C 180.649 115.466,170.516 115.555,168.000 116.696 C 166.767 117.256,164.879 117.602,162.005 117.795 C 158.025 118.063,155.600 118.750,155.600 119.610 C 155.600 119.825,154.925 120.004,154.100 120.010 C 151.897 120.024,149.619 120.636,148.390 121.544 C 147.796 121.984,146.610 122.470,145.755 122.625 C 144.011 122.941,142.000 123.857,142.000 124.335 C 142.000 124.507,141.123 124.873,140.051 125.148 C 138.980 125.423,137.744 126.060,137.306 126.564 C 136.839 127.102,135.834 127.588,134.877 127.741 C 133.927 127.893,133.011 128.334,132.688 128.796 C 132.383 129.232,131.353 129.864,130.400 130.200 C 129.447 130.536,128.427 131.154,128.133 131.574 C 127.839 131.993,127.078 132.451,126.441 132.591 C 125.804 132.731,124.953 133.210,124.550 133.656 C 124.146 134.101,123.183 134.728,122.408 135.049 C 121.634 135.369,120.730 135.960,120.400 136.362 C 118.661 138.481,115.436 138.115,114.308 135.670 C 113.508 133.938,107.528 127.600,106.693 127.600 C 106.385 127.600,105.651 127.060,105.063 126.400 C 104.475 125.740,103.704 125.200,103.350 125.200 C 102.995 125.200,102.118 124.684,101.400 124.053 C 100.681 123.423,99.406 122.778,98.567 122.620 C 97.727 122.463,96.830 122.047,96.575 121.698 C 96.043 120.971,93.152 120.015,91.458 120.006 C 90.830 120.003,89.801 119.567,89.173 119.038 C 88.199 118.219,87.451 118.039,84.115 117.824 C 81.703 117.668,79.419 117.265,78.165 116.774 C 76.099 115.965,68.707 115.429,65.640 115.866 M76.256 117.366 C 77.985 117.677,80.840 118.046,82.600 118.186 C 84.431 118.331,86.484 118.767,87.400 119.204 C 88.280 119.624,90.136 120.232,91.525 120.554 C 92.914 120.877,94.482 121.424,95.011 121.770 C 95.539 122.117,96.833 122.688,97.886 123.040 C 98.939 123.392,100.168 124.019,100.617 124.432 C 101.067 124.846,102.012 125.385,102.717 125.631 C 103.423 125.877,104.000 126.238,104.000 126.434 C 104.000 126.630,104.675 127.223,105.500 127.752 C 106.325 128.282,108.080 129.811,109.400 131.151 C 112.768 134.570,113.319 135.205,114.000 136.449 C 114.932 138.152,117.246 139.561,118.000 138.885 C 118.923 138.058,121.228 136.526,123.000 135.561 C 123.880 135.082,125.109 134.265,125.731 133.745 C 126.353 133.225,127.104 132.800,127.400 132.800 C 127.696 132.800,128.447 132.375,129.069 131.855 C 129.691 131.335,130.650 130.770,131.200 130.600 C 131.750 130.430,132.690 129.881,133.290 129.380 C 133.889 128.879,135.059 128.251,135.890 127.985 C 136.720 127.719,137.760 127.186,138.200 126.801 C 138.640 126.415,139.931 125.798,141.069 125.428 C 142.207 125.059,143.341 124.512,143.589 124.213 C 143.837 123.915,144.976 123.454,146.120 123.190 C 147.264 122.926,148.920 122.311,149.800 121.823 C 150.680 121.335,152.660 120.714,154.200 120.443 C 155.740 120.172,157.412 119.683,157.917 119.355 C 158.421 119.028,160.401 118.579,162.317 118.358 C 164.232 118.137,167.477 117.671,169.527 117.321 C 173.390 116.662,177.416 116.736,183.000 117.569 C 184.540 117.799,187.285 118.166,189.099 118.384 C 190.913 118.602,192.823 119.059,193.343 119.399 C 193.862 119.740,195.500 120.272,196.982 120.582 C 198.465 120.892,199.975 121.415,200.339 121.744 C 200.702 122.073,201.900 122.647,203.000 123.020 C 204.100 123.393,205.509 124.126,206.131 124.649 C 206.753 125.172,207.519 125.600,207.834 125.600 C 208.149 125.600,208.972 126.140,209.663 126.800 C 210.354 127.460,211.045 128.000,211.199 128.000 C 211.576 128.000,217.600 133.981,217.600 134.356 C 217.600 134.518,218.127 135.155,218.771 135.772 C 219.415 136.389,220.151 137.398,220.406 138.014 C 220.836 139.053,220.961 139.105,222.135 138.728 C 224.391 138.003,226.186 137.092,226.847 136.338 C 227.203 135.932,227.673 135.600,227.892 135.600 C 228.111 135.600,228.975 135.056,229.811 134.391 C 230.648 133.726,231.798 133.069,232.366 132.931 C 232.935 132.793,233.991 132.167,234.714 131.540 C 235.437 130.913,236.278 130.400,236.583 130.400 C 236.889 130.400,237.690 129.936,238.363 129.369 C 239.037 128.803,240.266 128.155,241.094 127.931 C 241.922 127.707,242.960 127.197,243.400 126.797 C 243.840 126.398,244.942 125.875,245.848 125.634 C 246.754 125.394,247.924 124.864,248.448 124.456 C 248.972 124.048,250.390 123.475,251.600 123.183 C 252.810 122.890,254.520 122.251,255.400 121.763 C 256.280 121.276,257.810 120.749,258.800 120.593 C 259.790 120.437,261.605 119.890,262.834 119.378 C 264.151 118.828,266.368 118.337,268.234 118.183 C 269.975 118.038,272.909 117.668,274.752 117.360 C 278.975 116.655,282.518 116.669,286.600 117.406 C 288.360 117.724,290.556 117.988,291.480 117.992 C 293.645 118.002,297.171 118.735,298.212 119.391 C 298.659 119.673,300.099 120.131,301.412 120.409 C 302.725 120.686,304.418 121.261,305.173 121.686 C 305.928 122.111,307.368 122.738,308.373 123.079 C 309.378 123.420,310.709 124.126,311.331 124.649 C 311.953 125.172,312.696 125.600,312.982 125.600 C 313.268 125.600,313.749 125.899,314.051 126.265 C 314.353 126.630,315.087 127.227,315.683 127.590 C 318.020 129.016,323.081 134.236,324.174 136.349 C 324.529 137.037,324.975 137.600,325.165 137.600 C 325.354 137.600,325.815 138.246,326.190 139.036 C 326.565 139.825,327.205 140.805,327.612 141.212 C 328.019 141.619,328.646 142.818,329.005 143.876 C 329.364 144.934,329.927 146.097,330.255 146.461 C 330.584 146.824,331.111 148.228,331.426 149.580 C 331.742 150.933,332.273 152.568,332.608 153.215 C 332.955 153.887,333.466 156.914,333.801 160.295 C 334.123 163.543,334.570 167.418,334.793 168.907 C 335.054 170.645,335.200 192.011,335.200 228.572 L 335.200 285.529 333.969 286.564 L 332.739 287.600 313.588 287.600 C 293.315 287.600,292.875 287.561,292.032 285.711 C 291.698 284.977,291.585 270.887,291.608 232.855 C 291.645 174.119,291.542 170.462,289.788 168.400 C 289.507 168.070,289.006 166.875,288.674 165.746 C 288.342 164.616,287.739 163.279,287.335 162.774 C 285.570 160.573,283.057 158.000,282.671 158.000 C 282.440 158.000,281.880 157.660,281.426 157.244 C 278.912 154.943,268.151 153.631,262.509 154.937 C 260.918 155.305,258.218 155.798,256.509 156.034 C 254.565 156.302,253.100 156.734,252.600 157.186 C 252.160 157.584,250.765 158.205,249.500 158.566 C 248.235 158.927,247.200 159.364,247.200 159.537 C 247.200 159.911,244.601 161.200,243.848 161.200 C 243.560 161.200,243.021 161.535,242.650 161.945 C 242.280 162.354,241.217 163.024,240.288 163.433 C 239.360 163.842,238.469 164.384,238.309 164.636 C 238.150 164.889,237.431 165.338,236.713 165.636 C 235.995 165.933,234.904 166.658,234.289 167.246 C 233.673 167.834,232.648 168.531,232.011 168.795 C 229.943 169.652,230.000 167.954,230.000 228.860 C 230.000 285.467,229.993 286.007,229.200 286.800 C 228.064 287.936,188.886 288.067,187.949 286.939 C 187.492 286.388,187.367 277.083,187.200 231.239 L 187.000 176.200 186.133 173.600 C 185.657 172.170,185.034 169.920,184.750 168.600 C 184.466 167.280,183.931 165.872,183.560 165.471 C 183.190 165.070,182.582 163.945,182.210 162.971 C 181.838 161.997,181.363 161.200,181.153 161.200 C 180.944 161.200,180.401 160.570,179.947 159.800 C 179.493 159.030,178.835 158.400,178.486 158.400 C 178.137 158.400,177.445 158.018,176.948 157.552 C 174.136 154.910,163.162 153.648,156.000 155.143 C 153.910 155.579,151.480 156.054,150.600 156.198 C 149.720 156.341,148.437 156.786,147.750 157.186 C 147.062 157.587,145.487 158.209,144.250 158.568 C 143.012 158.928,142.000 159.376,142.000 159.565 C 142.000 159.753,141.024 160.303,139.832 160.787 C 138.639 161.271,137.351 162.012,136.970 162.434 C 136.588 162.855,136.054 163.200,135.783 163.200 C 135.512 163.200,134.374 163.830,133.255 164.600 C 132.135 165.370,131.044 166.000,130.830 166.000 C 130.616 166.000,129.956 166.450,129.362 167.000 C 128.769 167.550,128.136 168.000,127.956 168.000 C 127.777 168.000,126.903 168.756,126.015 169.681 L 124.400 171.361 124.400 228.555 L 124.400 285.748 123.530 286.674 L 122.661 287.600 103.430 287.599 C 85.056 287.597,84.143 287.562,82.918 286.815 L 81.636 286.034 81.500 229.917 C 81.357 170.918,81.420 172.957,79.604 169.000 C 79.200 168.120,78.741 166.770,78.583 166.000 C 78.425 165.230,77.870 164.091,77.348 163.469 C 76.827 162.847,76.400 162.199,76.400 162.027 C 76.400 161.501,72.820 158.000,72.282 158.000 C 72.004 158.000,71.525 157.650,71.217 157.223 C 70.896 156.779,69.960 156.340,69.028 156.197 C 68.133 156.060,66.230 155.575,64.800 155.118 C 61.349 154.016,56.292 154.017,51.000 155.121 C 48.800 155.580,46.158 156.064,45.128 156.198 C 44.099 156.331,42.824 156.780,42.297 157.195 C 41.769 157.611,40.811 158.066,40.168 158.208 C 38.455 158.585,36.800 159.257,36.800 159.574 C 36.800 159.918,34.163 161.200,33.456 161.200 C 33.172 161.200,32.542 161.623,32.056 162.141 C 31.570 162.658,30.458 163.317,29.586 163.605 C 28.714 163.892,28.000 164.275,28.000 164.454 C 28.000 164.633,27.415 165.079,26.700 165.445 C 25.985 165.810,24.723 166.642,23.895 167.292 C 23.067 167.943,21.496 168.711,20.403 168.999 L 18.416 169.523 18.010 168.062 C 17.770 167.195,17.604 160.596,17.602 151.856 L 17.600 137.111 19.216 135.181 C 20.180 134.029,21.397 133.065,22.235 132.789 C 23.007 132.534,24.072 131.892,24.601 131.363 C 25.130 130.833,25.887 130.400,26.282 130.399 C 26.677 130.399,27.611 129.876,28.358 129.237 C 29.105 128.599,30.233 127.973,30.866 127.847 C 31.498 127.720,32.387 127.271,32.841 126.848 C 33.295 126.424,34.431 125.886,35.365 125.651 C 36.299 125.415,37.499 124.888,38.031 124.479 C 38.564 124.070,39.900 123.497,41.000 123.205 C 42.100 122.912,43.810 122.276,44.800 121.790 C 45.790 121.304,47.500 120.780,48.600 120.626 C 49.700 120.472,51.256 120.010,52.059 119.601 C 53.741 118.742,57.330 118.008,59.973 117.983 C 60.978 117.973,62.880 117.721,64.200 117.424 C 67.414 116.698,72.413 116.674,76.256 117.366 "
            stroke="none" fill="#f5c5c4" fill-rule="evenodd"></path>
    </g>
</svg>